<?xml version="1.0" standalone="no"?>
<!DOCTYPE svg PUBLIC "-//W3C//DTD SVG 20010904//EN"
 "http://www.w3.org/TR/2001/REC-SVG-20010904/DTD/svg10.dtd">
<svg version="1.0" xmlns="http://www.w3.org/2000/svg"
 width="504.000000pt" height="393.000000pt" viewBox="0 0 504.000000 393.000000">

<g transform="translate(0.000000,393.000000) scale(0.100000,-0.100000)"
fill="#023AFB" stroke="none">
<path d="M740 3919 c-172 -13 -289 -67 -334 -154 -21 -39 -21 -54 -26 -810 -6
-860 0 -795 -78 -871 -47 -46 -119 -82 -196 -99 -34 -7 -49 -14 -35 -14 68 -2
194 -63 247 -120 60 -65 57 -16 62 -856 l5 -770 25 -45 c67 -120 215 -160 587
-160 l193 0 0 65 0 65 -115 0 c-137 0 -205 13 -246 47 -67 57 -63 13 -69 808
l-5 720 -29 52 c-50 90 -165 161 -299 184 l-72 12 64 13 c101 21 155 42 213
84 59 42 103 98 118 151 6 20 10 301 10 715 0 773 -1 761 71 814 52 37 115 50
249 50 l110 0 0 65 0 65 -177 -1 c-98 -1 -221 -5 -273 -10z"/>
<path d="M3840 3856 l0 -64 143 -4 c125 -4 148 -7 192 -29 40 -19 55 -34 75
-74 l25 -50 5 -716 5 -716 30 -49 c56 -89 161 -151 305 -178 l65 -13 -72 -12
c-82 -14 -193 -64 -246 -110 -19 -18 -47 -55 -61 -83 l-26 -52 0 -682 c0 -455
-4 -700 -11 -734 -24 -112 -82 -142 -286 -148 l-143 -4 0 -65 0 -66 258 6
c278 6 329 13 432 65 35 18 65 42 85 70 l30 44 5 766 5 767 28 57 c42 87 114
136 247 172 32 8 44 15 30 15 -44 1 -148 43 -197 80 -32 25 -58 56 -78 96
l-30 59 -5 765 -5 766 -22 36 c-69 110 -229 148 -620 149 l-163 0 0 -64z"/>
<path d="M1996 3134 c-288 -62 -467 -223 -522 -470 -20 -93 -15 -295 10 -389
35 -128 106 -229 194 -274 l34 -18 -54 -31 c-92 -51 -146 -131 -179 -263 -18
-71 -21 -103 -17 -214 9 -215 68 -357 202 -482 86 -80 177 -132 291 -164 79
-23 87 -23 758 -26 l677 -4 0 246 0 245 -633 0 -633 0 -55 28 c-96 49 -141
162 -105 269 16 49 67 109 113 132 15 8 211 11 667 11 l646 0 0 250 0 250
-641 0 c-700 0 -674 -2 -735 58 -44 44 -58 82 -59 152 0 85 34 147 103 187
l47 28 643 3 642 3 0 244 0 245 -662 -1 c-544 0 -675 -3 -732 -15z"/>
</g>
</svg>
