<svg width="447" height="471" viewBox="0 0 447 471" fill="none" xmlns="http://www.w3.org/2000/svg">
<path fill-rule="evenodd" clip-rule="evenodd" d="M377 190.597L323.5 159.597C319.5 157.597 314 159.097 314 164.597V224.097C314 229.597 314 232.597 317 234.597L375.5 264.597C381 266.597 381 264.097 381 258.597V201.597C381 196.097 380.5 192.597 377 190.597ZM332.5 194.5V214C332.5 218.767 333.864 219.444 336.591 220.797C336.663 220.832 336.735 220.868 336.809 220.905C336.872 220.936 336.936 220.968 337 221L356.5 231.5C361.5 233.5 362.5 232.5 362.5 227.5V211.5C362.5 211.04 362.509 210.606 362.517 210.194C362.571 207.474 362.606 205.737 360 204L338.5 192.5C336.5 191.5 332.5 190.5 332.5 194.5Z" fill="#301D55"/>
<path fill-rule="evenodd" clip-rule="evenodd" d="M183 1.41421C185.5 0.414198 193 1.41426 195 2.41421L367 102.414C370.716 104.953 373 106.914 373 110.414V161.414C373 164.914 368.5 162.414 367 161.414L294 119.414C293.13 119.007 292.989 119.498 293 120.914L294 260.414C294 271.914 291 274.914 282 280.414L111 377.414C108.5 378.914 103.14 377.801 99 375.414L60 352.414C58.5 351.414 58.5 349.414 60 348.414L235 247.414C240 243.914 242 240.914 242 235.414V97.4142C242 92.4142 239.5 87.4142 234 84.4142L139 29.4142C138 28.9142 138 27.9142 139 27.4142L183 1.41421Z" fill="#FFB920"/>
<path fill-rule="evenodd" clip-rule="evenodd" d="M54 78.4142C54 75.9142 51 75.4142 49 76.4142L9 99.4142C3 102.914 1 104.414 1 110.414V309.414C1 313.914 3.62879 322.156 12.5 329.414C18 333.914 29 334.914 40 329.414L210 229.414C212.5 227.914 211.5 224.414 210 223.414L175 200.414C171.5 198.414 161.5 198.414 158 200.414L60 254.414C55.5 256.914 54 256.414 54 253.414V78.4142Z" fill="#FFB920"/>
<path fill-rule="evenodd" clip-rule="evenodd" d="M330 260.414L367 278.914C369 279.914 369 281.914 369 286.914V314.414C369 319.753 368.058 320.381 362.514 324.072L362 324.414L197 419.414C192.5 421.414 181.5 421.414 176 418.414L144 399.414C141.5 397.414 142.5 395.414 144 394.414L314 294.414C317.5 292.414 324 285.914 324 277.414V264.914C324 260.414 325.5 258.414 330 260.414Z" fill="#301D55"/>
<path fill-rule="evenodd" clip-rule="evenodd" d="M443 148.414L407 126.414C403 124.414 400 125.414 400 129.414V331.414C400 339.414 400 343.914 393 348.414L230 443.414C227.5 444.914 227.5 446.914 230 448.414L261 467.414C267 470.914 277.5 471.414 285 467.414L436 381.414C437.072 380.699 438.031 380.077 438.887 379.521C445.224 375.406 446 374.902 446 367.414V153.414C446 150.414 445.5 149.914 443 148.414Z" fill="#301D55"/>
<path fill-rule="evenodd" clip-rule="evenodd" d="M205 101.414L114.5 50.4142C102.5 44.4142 84 54.9142 84 68.4142V203.414C84 206.914 86 206.914 89 205.414L155 166.414C158 164.414 164 162.914 170 166.414L205 186.414C209 188.914 212 187.914 212 183.414V115.414C212 108.414 211 104.914 205 101.414Z" fill="#301D55"/>
<path fill-rule="evenodd" clip-rule="evenodd" d="M377 190.597L323.5 159.597C319.5 157.597 314 159.097 314 164.597V224.097C314 229.597 314 232.597 317 234.597L375.5 264.597C381 266.597 381 264.097 381 258.597V201.597C381 196.097 380.5 192.597 377 190.597ZM332.5 194.5V214C332.5 218.767 333.864 219.444 336.591 220.797C336.663 220.832 336.735 220.868 336.809 220.905C336.872 220.936 336.936 220.968 337 221L356.5 231.5C361.5 233.5 362.5 232.5 362.5 227.5V211.5C362.5 211.04 362.509 210.606 362.517 210.194C362.571 207.474 362.606 205.737 360 204L338.5 192.5C336.5 191.5 332.5 190.5 332.5 194.5Z" stroke="white"/>
<path fill-rule="evenodd" clip-rule="evenodd" d="M183 1.41421C185.5 0.414198 193 1.41426 195 2.41421L367 102.414C370.716 104.953 373 106.914 373 110.414V161.414C373 164.914 368.5 162.414 367 161.414L294 119.414C293.13 119.007 292.989 119.498 293 120.914L294 260.414C294 271.914 291 274.914 282 280.414L111 377.414C108.5 378.914 103.14 377.801 99 375.414L60 352.414C58.5 351.414 58.5 349.414 60 348.414L235 247.414C240 243.914 242 240.914 242 235.414V97.4142C242 92.4142 239.5 87.4142 234 84.4142L139 29.4142C138 28.9142 138 27.9142 139 27.4142L183 1.41421Z" stroke="white"/>
<path fill-rule="evenodd" clip-rule="evenodd" d="M54 78.4142C54 75.9142 51 75.4142 49 76.4142L9 99.4142C3 102.914 1 104.414 1 110.414V309.414C1 313.914 3.62879 322.156 12.5 329.414C18 333.914 29 334.914 40 329.414L210 229.414C212.5 227.914 211.5 224.414 210 223.414L175 200.414C171.5 198.414 161.5 198.414 158 200.414L60 254.414C55.5 256.914 54 256.414 54 253.414V78.4142Z" stroke="white"/>
<path fill-rule="evenodd" clip-rule="evenodd" d="M330 260.414L367 278.914C369 279.914 369 281.914 369 286.914V314.414C369 319.753 368.058 320.381 362.514 324.072L362 324.414L197 419.414C192.5 421.414 181.5 421.414 176 418.414L144 399.414C141.5 397.414 142.5 395.414 144 394.414L314 294.414C317.5 292.414 324 285.914 324 277.414V264.914C324 260.414 325.5 258.414 330 260.414Z" stroke="white"/>
<path fill-rule="evenodd" clip-rule="evenodd" d="M443 148.414L407 126.414C403 124.414 400 125.414 400 129.414V331.414C400 339.414 400 343.914 393 348.414L230 443.414C227.5 444.914 227.5 446.914 230 448.414L261 467.414C267 470.914 277.5 471.414 285 467.414L436 381.414C437.072 380.699 438.031 380.077 438.887 379.521C445.224 375.406 446 374.902 446 367.414V153.414C446 150.414 445.5 149.914 443 148.414Z" stroke="white"/>
<path fill-rule="evenodd" clip-rule="evenodd" d="M205 101.414L114.5 50.4142C102.5 44.4142 84 54.9142 84 68.4142V203.414C84 206.914 86 206.914 89 205.414L155 166.414C158 164.414 164 162.914 170 166.414L205 186.414C209 188.914 212 187.914 212 183.414V115.414C212 108.414 211 104.914 205 101.414Z" stroke="white"/>
</svg>
