<svg width="800" height="800" viewBox="0 0 800 800" fill="none" xmlns="http://www.w3.org/2000/svg">
<path fill-rule="evenodd" clip-rule="evenodd" d="M339.479 56.3927C315.913 58.3617 289.286 69.4547 271.038 84.9047C267.489 87.9097 263.664 90.3697 262.538 90.3717C259.844 90.3747 243.565 94.6967 233.492 98.0827C202.326 108.56 176.458 130.193 163.196 156.869C155.532 172.287 150.013 194.481 149.998 209.944L149.992 216.019L141.742 221.919C112.724 242.67 93.8314 267.913 86.9854 295.081C84.5584 304.713 84.3124 324.494 86.4914 334.781C89.8234 350.508 100.535 366.603 112.949 374.535C118.52 378.095 130.906 382.914 139.755 384.965C145.769 386.359 147.19 387.195 152.992 392.755C167.51 406.665 187.966 418.191 211.742 425.858C218.285 427.968 220.087 428.969 220.452 430.694C220.706 431.89 221.427 435.569 222.055 438.869C223.505 446.485 229.019 459.942 233.678 467.234C238.232 474.361 250.137 486.256 255.901 489.436C258.326 490.774 260.657 492.544 261.081 493.369C261.505 494.194 263.463 498.244 265.433 502.369C272.447 517.057 287.36 531.53 303.492 539.304C317.965 546.278 331.292 549.616 352.088 551.475C368.886 552.976 432.971 553.049 446.936 551.583C452.68 550.98 457.91 550.798 458.557 551.178C459.798 551.906 466.571 560.052 484.573 582.464C525.376 633.267 544.733 651.225 561.592 653.921C565.013 654.468 566.078 654.167 568.781 651.893C572.591 648.687 574.429 642.767 573.512 636.652C572.388 629.16 569.284 621.577 558.043 598.869C544.752 572.022 540.825 562.346 540.825 556.45C540.825 551.131 542.553 549.491 550.886 546.901C560.204 544.003 573.109 538.456 579.992 534.388C584.355 531.81 588.301 530.32 591.992 529.857C600.14 528.835 609.356 526.591 616.597 523.866C636.29 516.453 657.934 494.417 670.892 468.587C676.447 457.513 678.404 452.379 681.486 440.795C683.726 432.378 684.741 430.267 688.864 425.452C705.782 405.697 714.169 382.422 714.119 355.369C714.087 338.331 709.557 322.8 700.934 310.167L696.789 304.094L698.946 293.867C701.28 282.797 701.803 265.885 700.089 256.869C695.023 230.221 675.367 207.53 650.627 199.771C647.401 198.759 644.536 197.242 644.261 196.4C636.69 173.224 609.954 143.445 581.76 126.785C573.486 121.896 572.339 120.841 569.484 115.497C550.141 79.2947 513.311 60.1837 462.492 59.9797C443.936 59.9047 435.358 61.3747 418.727 67.4797L410.961 70.3297L405.41 67.8747C385.087 58.8867 360.62 54.6257 339.479 56.3927ZM336.492 68.0857C331.887 68.7267 318.248 72.2847 311.523 74.5987C300.835 78.2777 281.363 89.5427 282.503 91.3867C282.837 91.9267 284.492 92.3687 286.181 92.3687C297.944 92.3687 337.836 105.185 354.178 114.214L358.863 116.802L361.178 113.836C369.531 103.128 384.838 88.1957 394.784 81.0517L399.077 77.9687L396.652 76.6987C385.024 70.6057 352.178 65.9037 336.492 68.0857ZM442.492 72.8497C433.472 74.7187 422.933 77.7227 423.229 78.3397C423.374 78.6397 429.792 85.0057 437.492 92.4867L451.492 106.089L459.492 105.166C463.892 104.659 477.505 104.385 489.742 104.558C507.954 104.816 511.992 104.627 511.992 103.517C511.992 100.564 504.311 87.7827 499.864 83.3367C494.211 77.6827 488.606 74.8177 479.377 72.8617C471.063 71.1007 450.967 71.0947 442.492 72.8497ZM512.598 83.1247C517.643 89.2817 522.39 98.6427 523.519 104.661C524.03 107.388 524.716 108.369 526.108 108.369C527.97 108.369 541.929 111.947 551.242 114.812C554.124 115.699 555.992 115.878 555.992 115.268C555.992 112.906 544.422 100.054 536.822 93.9727C529.368 88.0087 517.83 81.1587 510.626 78.4197C508.105 77.4607 508.259 77.8287 512.598 83.1247ZM399.492 92.2497C390.23 99.2247 370.614 118.911 368.667 123.183C367.766 125.16 367.891 125.822 369.369 126.903C370.91 128.03 372.288 127.738 378.996 124.867C392.336 119.157 407.205 114.804 433.768 108.83C436.03 108.321 436.024 108.291 432.768 104.209C428.625 99.0117 412.101 85.3517 410.041 85.4197C409.189 85.4477 404.442 88.5207 399.492 92.2497ZM266.737 103.377C263.588 105.345 248.992 128.676 248.992 131.743C248.992 132.087 252.254 132.377 256.242 132.386C264.888 132.407 275.189 134.92 284.821 139.36L291.859 142.604L305.422 139.937C312.881 138.471 324.499 136.789 331.238 136.201L343.492 135.131L347.226 131C349.28 128.728 350.968 126.503 350.976 126.056C351.003 124.662 332.983 116.632 320.351 112.408C297.947 104.917 271.422 100.449 266.737 103.377ZM246.992 106.006C246.167 106.27 242.567 107.413 238.992 108.546C230.521 111.231 210.949 121.186 203.976 126.355C196.264 132.072 185.565 142.788 180.441 149.925C170.737 163.442 163.135 183.995 161.427 201.336C160.822 207.468 160.932 208.527 162.098 207.819C167.921 204.284 182.194 194.979 185.318 192.682C188.501 190.342 189.609 188.503 191.906 181.755C198.688 161.831 212.844 145.045 230.314 136.211C234.903 133.891 236.456 132.484 237.647 129.568C240.109 123.536 243.741 116.219 247.053 110.619C250.083 105.494 250.077 105.02 246.992 106.006ZM471.992 115.12C457.891 115.536 458.231 115.178 463.921 123.631C471.087 134.275 479.406 149.648 484.111 160.937C486.387 166.4 488.754 171.2 489.371 171.604C493.394 174.24 497.167 171.098 503.858 159.54C508.876 150.871 511.826 142.775 513.576 132.869C515.42 122.43 515.399 117.739 513.504 117.012C509.555 115.497 489.778 114.595 471.992 115.12ZM435.992 119.539C411.444 124.753 389.057 131.301 384.808 134.51L382.492 136.259L386.096 137.766C388.078 138.595 393.928 140.166 399.096 141.256C419.781 145.618 443.03 152.432 460.443 159.234C467.345 161.93 472.992 163.727 472.992 163.228C472.992 160.021 458.89 135.562 451.308 125.619C445.292 117.728 445.021 117.621 435.992 119.539ZM525.162 128.619C523.206 144.351 517.74 159.3 509.24 172.161C507.316 175.071 505.911 177.582 506.117 177.741C506.323 177.899 511.667 180.88 517.992 184.365C533.281 192.788 545.873 200.602 553.693 206.521C557.216 209.187 560.328 211.369 560.61 211.369C561.759 211.369 567.973 196.302 570.097 188.368C574.531 171.797 572.907 146.986 566.658 135.842C564.75 132.44 563.213 131.348 555.961 128.243C548.634 125.105 530.085 119.369 527.267 119.369C526.742 119.369 525.795 123.532 525.162 128.619ZM359.224 135.369C358.048 137.253 358.222 137.367 362.234 137.336L366.492 137.302L364.131 135.336C361.191 132.886 360.773 132.889 359.224 135.369ZM581.315 143.619C581.637 145.407 582.368 149.569 582.94 152.869C586.043 170.766 582.25 193.03 572.965 211.423C571.33 214.662 569.992 217.736 569.992 218.254C569.992 218.773 573.03 221.587 576.742 224.509C589.975 234.922 605.878 249.416 616.041 260.325C621.716 266.417 626.696 271.057 627.107 270.635C628.463 269.245 634.987 246.337 636.504 237.641C639.604 219.863 637.901 208.639 629.559 191.869C623.792 180.276 614.507 168.054 603.35 157.369C595.679 150.023 583.174 140.369 581.33 140.369C581 140.369 580.994 141.831 581.315 143.619ZM244.533 144.119C243.494 146.819 241.09 158.8 241.504 159.214C241.706 159.417 247.053 157.509 253.385 154.976C259.717 152.442 265.573 150.369 266.398 150.369C268.464 150.369 272.992 148.225 272.992 147.247C272.992 145.659 257.106 142.386 249.349 142.375C246.323 142.371 245.024 142.841 244.533 144.119ZM227.492 150.99C225.292 152.936 222.247 155.505 220.724 156.699C216.15 160.286 201.989 179.794 203.184 180.862C203.354 181.013 206.416 179.348 209.991 177.163C213.565 174.977 219.421 171.629 223.004 169.723L229.519 166.258L231.022 156.813C231.849 151.619 232.292 147.388 232.008 147.411C231.724 147.434 229.692 149.044 227.492 150.99ZM325.992 148.014C321.393 148.44 308.987 150.381 306.663 151.037C305.161 151.462 306.145 152.924 312.163 159.212C316.194 163.423 320.03 167.01 320.688 167.182C321.736 167.456 329.236 158.149 334.44 150.119L336.222 147.369L332.857 147.529C331.006 147.617 327.917 147.835 325.992 148.014ZM346.883 152.119C341.088 160.708 333.646 170.805 330.323 174.586L327.057 178.303L333.865 188.586C337.609 194.242 341.912 201.006 343.427 203.619C344.942 206.232 346.505 208.369 346.9 208.369C347.295 208.369 350.061 207.191 353.046 205.75C368.03 198.522 388.445 196.529 408.207 200.366C420.706 202.793 420.658 202.792 418.829 200.619C418.019 199.657 415.389 195.494 412.985 191.369C403.776 175.571 388.093 155.628 380.625 150.218C376.77 147.426 376.426 147.369 363.39 147.369H350.088L346.883 152.119ZM400.596 154.116C406.397 159.917 424.26 186.793 430.156 198.59C432.279 202.836 434.797 206.701 435.753 207.177C436.71 207.654 440.554 208.848 444.296 209.832L451.101 211.621L458.195 206.745C462.097 204.063 469.067 198.573 473.684 194.544C482.582 186.781 482.605 186.726 479.634 180.463C477.731 176.453 449.296 165.655 417.389 156.825C399.269 151.811 398.103 151.623 400.596 154.116ZM273.992 158.969C266.567 161.494 258.692 164.369 256.492 165.358C254.292 166.347 249.477 168.516 245.791 170.178L239.09 173.199L239.618 177.034C241.7 192.155 244.562 201.605 250.625 213.369C255.968 223.737 265.99 237.869 267.999 237.869C268.808 237.869 271.448 234.494 273.866 230.369C283.82 213.386 300.101 190.496 308.631 181.492C313.532 176.319 313.542 176.348 304.189 167.073C294.377 157.342 290.779 154.367 288.834 154.374C288.096 154.377 281.417 156.444 273.992 158.969ZM223.992 181.592C222.067 182.723 215.918 186.311 210.327 189.566C204.737 192.82 199.901 196.165 199.581 196.998C198.644 199.439 200.934 216.879 203.556 227.277C206.23 237.882 213.463 257.099 215.918 260.124C217.469 262.034 217.772 262.013 236.492 258.726C263.388 254.002 262.436 254.264 262.829 251.488C263.077 249.732 261.857 247.765 258.173 243.988C252.995 238.678 244.075 225.551 239.744 216.869C236.286 209.936 232.367 198.109 230.963 190.369C230.314 186.794 229.597 182.857 229.368 181.619C228.874 178.934 228.517 178.932 223.992 181.592ZM316.825 190.112C306.073 201.721 289.364 225.312 281.076 240.586L276.889 248.302L283.377 251.244C287.126 252.944 293.715 254.785 298.988 255.606L308.111 257.026L312.098 249.037C314.29 244.644 317.043 239.658 318.216 237.959C321.335 233.438 331.059 222.263 334.242 219.542C335.754 218.249 336.992 216.818 336.992 216.363C336.992 215.077 322.761 191.4 320.011 188.112C319.664 187.696 318.23 188.596 316.825 190.112ZM496.584 189.267C494.945 191.079 495.097 191.57 499.943 200.092C505.937 210.634 513.829 228.191 517.661 239.509C519.166 243.952 520.995 247.817 521.727 248.098C522.459 248.379 525.631 246.921 528.775 244.859C536.049 240.089 553.217 222.773 552.802 220.626C552.253 217.794 523.243 199.006 506.271 190.49C498.958 186.822 498.814 186.803 496.584 189.267ZM479.492 204.585C475.642 207.819 470.539 211.843 468.152 213.527C465.765 215.211 464.19 216.965 464.652 217.425C465.114 217.885 469.992 220.132 475.492 222.418C480.992 224.704 489.356 228.553 494.078 230.971C498.8 233.39 503.012 235.369 503.437 235.369C503.861 235.369 503.917 234.206 503.56 232.785C502.881 230.079 492.956 209.817 488.867 202.787L486.492 198.705L479.492 204.585ZM182.315 208.271C179.468 210.25 174.581 213.444 171.456 215.369C161.015 221.8 161.069 221.703 162.524 231.444C164.248 242.989 166.445 251.052 171.175 263.187C173.585 269.369 175.658 273.327 176.349 273.062C181.484 271.092 197.686 266.282 200.942 265.761C203.17 265.405 204.992 264.993 204.992 264.846C204.992 264.699 203.694 261.494 202.108 257.724C195.533 242.098 191.83 228.985 189.926 214.588C189.252 209.483 188.428 205.164 188.096 204.99C187.764 204.815 185.162 206.292 182.315 208.271ZM372.992 210.867C367.123 212.051 354.731 216.648 352.676 218.404C351.653 219.278 358.817 230.525 369.534 244.869C382.233 261.866 379.306 261.45 396.696 248.72C404.849 242.752 415.451 235.2 420.256 231.939C425.061 228.677 428.992 225.622 428.992 225.149C428.992 224.676 428.104 222.548 427.018 220.419C425.309 217.07 424.199 216.271 418.768 214.485C404.154 209.679 386.002 208.244 372.992 210.867ZM648.366 224.249C648.257 236.018 647.822 239.45 645.164 249.5C643.472 255.898 640.892 264.448 639.43 268.5C635.028 280.705 634.608 279.634 644.6 281.69C656.942 284.231 671.33 288.97 679.27 293.111C682.998 295.056 686.311 296.383 686.633 296.062C688.084 294.611 689.925 282.005 689.957 273.303C690.005 260.096 688.58 253.35 683.527 242.869C677.894 231.185 669.974 222.463 659.369 216.266C647.49 209.324 648.511 208.583 648.366 224.249ZM446.187 227.042C443.008 228.958 442.063 230.06 442.577 231.253C444.644 236.055 448.958 252.009 450.272 259.713C451.102 264.578 452.24 269.017 452.802 269.579C454.189 270.966 468.421 268.932 482.492 265.335C494.441 262.28 511.001 256.577 510.977 255.524C510.92 253.104 502.107 247.462 484.72 238.716C474.804 233.728 452.639 224.303 451.072 224.408C450.753 224.429 448.555 225.615 446.187 227.042ZM336.917 232.619C328.621 242.498 319.736 256.681 321.151 257.786C321.759 258.262 369.138 264.556 369.483 264.207C369.667 264.021 366.249 259.193 361.888 253.478C357.527 247.763 351.604 239.334 348.725 234.748C345.847 230.161 343.193 226.399 342.829 226.389C342.464 226.378 339.803 229.182 336.917 232.619ZM554.934 236.992C550.291 241.695 543.117 248.279 538.992 251.625C534.867 254.97 531.099 258.046 530.619 258.461C530.139 258.875 532.843 262.512 536.627 266.542C540.412 270.572 545.114 275.828 547.076 278.223L550.645 282.578L562.068 281.228C568.351 280.485 583.279 279.876 595.241 279.873C611.425 279.87 616.989 279.564 616.991 278.675C616.994 275.576 579.493 240.289 564.434 229.22C563.803 228.756 559.965 231.896 554.934 236.992ZM141.465 236.75C118.692 254.978 103.413 276.195 97.8144 297.369C95.2574 307.04 95.1024 323.2 97.4784 332.369C101.722 348.747 113.139 363.045 127.346 369.774C131.666 371.82 135.408 373.286 135.663 373.031C135.918 372.776 135.004 370.353 133.633 367.647C132.261 364.941 130.376 359.833 129.443 356.298C121.196 325.038 130.774 299.405 157.142 282.167L164.792 277.166L162.375 271.701C159.147 264.402 153.36 245.144 151.934 236.959C151.303 233.335 150.483 230.369 150.113 230.369C149.742 230.369 145.851 233.241 141.465 236.75ZM411.628 251.953C390.303 266.96 387.928 269.479 394.502 270.119C400.852 270.738 434.662 271.853 437.845 271.548L441.198 271.227L440.504 266.548C439.565 260.21 434.086 239.063 433.138 238.115C432.719 237.696 423.039 243.923 411.628 251.953ZM267.141 269.521C263.648 277.67 255.876 302.552 256.187 304.594C256.382 305.881 259.366 308.344 264.492 311.45C274.135 317.292 300.589 329.736 301.79 328.994C302.26 328.703 302.307 326.081 301.892 323.167C300.026 310.056 301.626 277.697 304.512 270.177C305.482 267.65 299.738 266.439 283.273 265.699L269.053 265.06L267.141 269.521ZM249.992 267.413C247.517 267.867 241.129 269.014 235.796 269.961C230.464 270.909 225.542 272.029 224.858 272.452C223.94 273.019 224.381 274.336 226.554 277.51C229.976 282.509 244.921 297.774 245.664 297.03C245.942 296.752 247.883 291.413 249.976 285.165C252.07 278.917 254.482 272.132 255.337 270.087C257.048 265.99 257.237 266.085 249.992 267.413ZM504.492 270.458C492.296 274.674 479.826 277.675 463.992 280.205L453.492 281.882L453.542 285.626C453.815 306.085 453.949 307.369 455.802 307.369C456.797 307.369 464.784 304.854 473.552 301.781C482.319 298.707 496.873 294.214 505.893 291.796C514.914 289.378 522.534 287.161 522.826 286.868C523.559 286.135 517.835 268.47 516.539 267.467C515.957 267.016 510.61 268.343 504.492 270.458ZM319.992 269.038C320.817 269.37 326.854 273.693 333.407 278.646C341.608 284.843 345.717 287.372 346.588 286.76C353.304 282.033 360.91 275.64 360.946 274.691C360.974 273.985 358.686 273.268 355.242 272.902C352.079 272.567 344.092 271.617 337.492 270.791C330.892 269.966 323.917 269.098 321.992 268.862C320.067 268.627 319.167 268.706 319.992 269.038ZM206.492 275.877C205.942 276.069 200.167 277.67 193.658 279.435C187.149 281.199 181.613 283.193 181.355 283.864C180.733 285.486 187.487 296.327 197.558 309.869C206.16 321.436 230.373 347.369 232.57 347.369C233.365 347.369 234.487 344.408 235.509 339.619C236.419 335.357 238.388 326.865 239.885 320.75L242.606 309.631L233.415 301.032C228.36 296.303 221.359 288.597 217.858 283.907C211.769 275.751 210.14 274.601 206.492 275.877ZM371.385 281.504C367.594 284.329 362.242 288.469 359.492 290.706C356.742 292.943 354.323 294.888 354.116 295.03C353.909 295.172 357.284 298.623 361.616 302.7C365.948 306.777 374.429 315.57 380.462 322.241C386.496 328.911 391.815 334.369 392.283 334.369C392.752 334.369 398.871 331.107 405.883 327.119C412.895 323.131 422.52 318.069 427.272 315.869C432.024 313.669 435.917 311.644 435.924 311.369C435.931 311.094 432.236 308.71 427.714 306.071C423.192 303.432 414.542 298.073 408.492 294.162C386.589 280.002 380.665 276.369 379.483 276.369C378.82 276.369 375.176 278.68 371.385 281.504ZM531.992 276.869C531.992 277.144 532.217 277.369 532.492 277.369C532.767 277.369 532.992 277.144 532.992 276.869C532.992 276.594 532.767 276.369 532.492 276.369C532.217 276.369 531.992 276.594 531.992 276.869ZM313.502 280.633C313.109 281.863 312.554 290.218 312.27 299.2C311.639 319.152 312.058 320.032 318.794 312.869C321.38 310.119 326.307 305.305 329.744 302.172C333.18 299.038 335.992 296.056 335.992 295.544C335.992 294.79 319.852 281.932 315.392 279.133C314.668 278.679 313.944 279.254 313.502 280.633ZM533.992 281.324C533.992 283.517 535.868 284.779 538.272 284.204C539.225 283.975 538.767 283.129 536.831 281.543C534.013 279.234 533.992 279.232 533.992 281.324ZM409.992 281.578C409.992 281.846 414.829 285.16 420.742 288.942C426.655 292.724 433.967 297.546 436.992 299.658L442.492 303.498L442.807 297.183C442.98 293.71 442.84 288.956 442.496 286.619L441.869 282.369L431.181 282.36C425.302 282.356 418.13 282.068 415.242 281.721C412.354 281.374 409.992 281.31 409.992 281.578ZM160.992 293.201C153.101 299.03 145.629 307.179 142.485 313.383C141.202 315.915 139.404 321.561 138.489 325.928C135.757 338.976 137.882 351.265 145.474 366.327C150.943 377.177 150.196 376.88 171.848 376.801C188 376.742 192.163 376.38 202.992 374.096C222.635 369.951 228.893 367.76 230.093 364.603C231.421 361.109 230.119 358.816 224.298 354.4C216.243 348.289 205.727 337.907 197.011 327.46C189.398 318.335 176.284 299.619 171.789 291.46C170.852 289.76 169.502 288.376 168.789 288.384C168.075 288.392 164.567 290.56 160.992 293.201ZM578.992 290.362C574.317 290.839 568.017 291.469 564.992 291.763C561.967 292.057 559.38 292.313 559.242 292.333C558.228 292.479 559.704 295.391 564.134 301.985C578.232 322.97 597.193 358.026 602.476 372.869C603.454 375.619 604.592 378.243 605.005 378.7C606.347 380.188 610.678 355.937 612.477 336.869C613.939 321.375 615.306 311.034 617.148 301.533C618.25 295.848 618.946 290.99 618.694 290.738C617.768 289.811 587.231 289.523 578.992 290.362ZM629.693 297.619C626.699 306.791 625.297 315.833 621.953 347.548C621.392 352.871 619.396 365.009 617.519 374.521C615.642 384.033 614.293 392.003 614.522 392.232C616.292 394.002 645.536 364.881 655.87 351.057L663.205 341.245L656.711 328.057C650.372 315.185 634.897 292.369 632.505 292.369C631.901 292.369 630.635 294.732 629.693 297.619ZM649.282 294.682C649.543 295.363 652.328 299.503 655.471 303.884C658.613 308.264 663.054 315.774 665.338 320.572C667.623 325.371 669.917 329.172 670.436 329.018C671.682 328.651 681.956 309.319 681.976 307.304C681.985 306.444 680.305 304.919 678.242 303.915C666.801 298.351 648.444 292.498 649.282 294.682ZM540.992 295.283C539.067 295.64 537.581 296.411 537.69 296.995C537.799 297.58 539.233 304.765 540.877 312.963C542.521 321.161 544.478 331.918 545.227 336.866L546.588 345.864L554.606 350.366C563.693 355.47 576.628 363.982 585.483 370.685C588.779 373.179 591.63 375.064 591.82 374.874C592.29 374.404 584.901 359.265 577.663 345.869C567.966 327.922 546.676 294.229 545.205 294.501C544.813 294.573 542.917 294.925 540.992 295.283ZM508.492 302.391C490.075 307.145 472.437 312.908 473.774 313.734C474.32 314.072 479.668 316.104 485.659 318.25C491.65 320.396 498.563 323.066 501.022 324.183C503.48 325.3 508.867 327.657 512.992 329.422C517.117 331.186 523.576 334.174 527.344 336.063C531.113 337.952 534.329 339.356 534.491 339.183C534.892 338.755 532.473 325.429 529.306 310.619C527.262 301.061 526.335 298.385 525.089 298.444C524.211 298.485 516.742 300.261 508.492 302.391ZM334.002 313.136C313.213 332.426 314.29 331.242 316.194 332.709C318.25 334.292 334.791 336.816 356.492 338.857C382.479 341.302 382.373 341.345 373.807 331.799C365.192 322.198 346.305 303.365 345.311 303.386C344.861 303.395 339.772 307.783 334.002 313.136ZM685.952 325.054C683.047 330.452 679.603 336.488 678.299 338.467L675.928 342.064L678.874 350.967C683.09 363.703 685.145 376.643 685.727 394.103C686.006 402.482 686.624 409.096 687.101 408.801C690.654 406.606 698.135 388.788 701.005 375.684C705.628 354.578 702.871 334.374 693.199 318.469L691.235 315.239L685.952 325.054ZM251.709 318.075C251.459 318.512 249.309 327.1 246.932 337.159L242.611 355.45L245.692 358.531L248.773 361.611L257.632 356.887C270.57 349.987 291.082 337.042 290.228 336.315C289.823 335.971 287.917 335.089 285.992 334.356C281.363 332.591 262.076 323.089 256.543 319.846C254.135 318.435 251.96 317.638 251.709 318.075ZM453.661 323.119C453.338 325.182 452.781 329.794 452.424 333.369L451.774 339.869L464.133 340.192C487.291 340.796 501.121 346.151 506.615 356.641C509.109 361.405 508.581 371.645 505.517 377.907C499.644 389.912 477.381 403.669 454.874 409.201L447.969 410.899L455.574 424.384C459.757 431.801 463.7 438.394 464.336 439.036C466.655 441.377 518.014 433.618 529.155 429.244C531.93 428.155 532.474 426.572 536.165 408.869C537.572 402.123 537.993 359.667 536.7 355.026C536.016 352.572 533.968 351.254 521.7 345.369C504.841 337.282 486.351 329.762 468.534 323.745C461.407 321.338 455.277 319.369 454.911 319.369C454.546 319.369 453.984 321.057 453.661 323.119ZM428.437 327.477C410.754 336.52 404.992 339.683 404.992 340.349C404.992 340.678 408.255 340.619 412.242 340.22C416.229 339.82 424.265 339.465 430.1 339.431L440.707 339.369L441.35 333.222C442.209 325.001 442.159 321.369 441.187 321.369C440.745 321.369 435.007 324.118 428.437 327.477ZM295.579 346.84C284.441 354.592 260.094 368.991 258.778 368.603C258.385 368.488 258.283 368.963 258.55 369.66C259.915 373.218 293.706 391.239 296.238 389.759C296.928 389.356 299.967 386.935 302.992 384.378C306.017 381.821 310.592 378.151 313.159 376.222L317.826 372.715L315.798 368.292C314.682 365.859 311.889 358.951 309.591 352.939C307.293 346.928 304.972 341.862 304.434 341.683C303.896 341.504 299.911 343.824 295.579 346.84ZM318.31 345.754C321.633 354.414 326.554 364.647 327.585 365.043C328.287 365.313 331.929 363.751 335.677 361.572C339.425 359.393 345.801 355.952 349.844 353.926C353.888 351.899 356.995 350.039 356.749 349.793C356.502 349.546 348.919 348.456 339.896 347.371C330.874 346.286 322.181 345.1 320.578 344.735C318.122 344.177 317.766 344.337 318.31 345.754ZM418.242 350.147C406.189 350.4 403.116 351.092 406.034 352.895C407.861 354.024 421.326 370.711 425.992 377.629C428.467 381.298 430.937 384.168 431.48 384.005C432.681 383.647 437.789 363.089 438.651 355.144L439.272 349.419L435.382 349.644C433.242 349.768 425.53 349.994 418.242 350.147ZM450.498 350.83C450.35 351.401 449.075 357.944 447.665 365.369C446.255 372.794 443.891 382.759 442.412 387.514C439.685 396.279 439.666 400.646 442.35 401.676C444.516 402.507 460.438 396.785 472.492 390.842C489.489 382.463 496.992 374.731 496.992 365.596C496.992 360.662 493.417 357.063 485.926 354.455C476.376 351.13 451.091 348.543 450.498 350.83ZM375.393 353.197C370.76 354.798 353.33 363.999 338.779 372.522C335.638 374.363 333.05 376.382 333.029 377.009C332.969 378.839 347.473 404.501 349.055 405.363C351.507 406.699 372.916 408.369 387.583 408.369C405.646 408.369 425.013 406.057 426.742 403.695C427.43 402.755 427.992 401.631 427.992 401.197C427.992 398.648 414.115 379.454 399.739 362.119L390.823 351.369L385.658 351.402C382.817 351.42 378.197 352.227 375.393 353.197ZM659.58 364.319C648.192 378.929 632.948 393.235 616.648 404.61C614.97 405.78 614.908 406.439 615.957 411.883C617.839 421.652 618.408 444.008 617.054 454.968C614.478 475.813 609.585 491.965 600.945 508.144C598.221 513.245 595.992 517.641 595.992 517.913C595.992 518.985 611.067 514.41 616.161 511.792C642.47 498.27 664.118 466.405 672.079 429.485C675.066 415.632 675.758 391.226 673.555 377.369C671.859 366.695 669.343 356.49 668.066 355.103C667.678 354.682 663.86 358.829 659.58 364.319ZM548.429 381.119C548.378 398.043 547.963 404.021 546.179 413.541C544.976 419.961 543.992 425.427 543.992 425.688C543.992 426.525 561.591 419.651 569.166 415.855C580.86 409.995 597.992 399.358 597.992 397.957C597.992 396.783 591.142 389.9 583.265 383.158C577.661 378.363 550.496 360.368 548.861 360.369C548.658 360.369 548.464 369.707 548.429 381.119ZM240.227 375.406C238.982 375.906 237.53 377.455 237 378.847C234.932 384.287 231.921 405.815 232.202 413.155L232.492 420.746L240.492 422.495C249.372 424.437 266.586 425.262 267.8 423.805C268.229 423.29 271.115 419.494 274.213 415.369C277.312 411.244 281.455 406.318 283.419 404.423C285.384 402.527 286.99 400.502 286.988 399.923C286.986 399.343 283.742 397.519 279.78 395.869C272.033 392.643 258.635 384.626 250.4 378.288C245.098 374.208 243.99 373.894 240.227 375.406ZM211.255 383.381C198.112 386.694 185.865 388.346 173.992 388.407L165.492 388.45L168.992 391.47C173.722 395.552 187.123 403.605 195.579 407.448C203.856 411.21 219.149 416.545 219.798 415.897C220.052 415.643 220.639 411.483 221.103 406.652C221.9 398.358 223.004 390.997 224.558 383.619C225.388 379.678 225.909 379.687 211.255 383.381ZM315.89 388.01C308.93 394.189 308.395 394.882 309.872 395.795C311.981 397.098 332.992 402.164 332.992 401.369C332.992 400.684 323.447 383.532 322.547 382.6C322.404 382.452 319.408 384.887 315.89 388.01ZM290.758 412.899C286.212 418.141 282.492 422.978 282.492 423.649C282.492 424.393 284.249 424.963 286.992 425.109C310.667 426.372 322.818 428.1 342.796 433.045C348.463 434.447 353.277 435.418 353.494 435.201C353.898 434.797 342.734 417.83 340.648 415.676C340.012 415.02 332.442 412.679 323.826 410.475C315.209 408.27 306.491 405.769 304.453 404.917C302.415 404.066 300.36 403.369 299.886 403.369C299.413 403.369 295.305 407.658 290.758 412.899ZM592.008 415.678C583.957 421.311 565.742 429.907 553.492 433.856C546.892 435.983 540.999 438.206 540.396 438.796C539.793 439.386 538.278 443.019 537.029 446.869C532.015 462.331 525.674 473.627 515.497 485.224C511.148 490.18 510.167 491.875 511.041 492.928C511.657 493.671 515.731 496.371 520.093 498.928C529.617 504.512 527.814 505.232 544.515 489.176C561.622 472.731 573.92 456.185 587.334 431.57C590.721 425.355 594.487 418.492 595.703 416.32C598.329 411.626 597.906 411.552 592.008 415.678ZM434.28 414.075C433.613 414.314 432.069 416.166 430.848 418.19C427.487 423.758 421.467 431.026 413.122 439.589C408.984 443.835 405.805 447.516 406.058 447.768C406.31 448.021 409.886 447.576 414.004 446.78C423.16 445.01 442.4 442.394 446.492 442.362C451.991 442.319 452.463 441.178 449.22 435.762C447.609 433.071 444.122 427.136 441.472 422.573C436.276 413.629 436.099 413.42 434.28 414.075ZM357.5 420.114C364.863 432.577 381.067 452.369 383.909 452.369C386.463 452.369 418.857 418.9 417.559 417.602C417.408 417.452 411.706 417.844 404.888 418.475C393.195 419.558 372.083 419.192 360.599 417.709L355.706 417.077L357.5 420.114ZM600.948 429.548C586.824 458.641 567.034 485.312 546.065 503.509L539.638 509.087L547.565 511.692C558.405 515.254 569.339 517.599 575.804 517.746C580.816 517.86 581.415 517.617 584.136 514.369C588.904 508.676 597.606 490.606 600.869 479.621C605.259 464.846 607.164 450.389 606.865 434.119C606.726 426.557 606.341 420.369 606.008 420.369C605.676 420.369 603.398 424.499 600.948 429.548ZM232.631 433.145C231.737 434.591 235.679 447.808 238.91 454.198C242.25 460.803 249.145 469.944 253.639 473.726C255.367 475.18 256.965 476.369 257.189 476.369C257.414 476.369 257.597 470.856 257.595 464.119C257.594 455.66 258.119 449.967 259.292 445.725C261.82 436.586 261.827 436.602 255.242 435.897C248.382 435.161 238.331 433.584 235.355 432.775C234.179 432.456 232.954 432.622 232.631 433.145ZM273.662 437.473C269.239 444.231 266.781 466.529 269.208 477.869L270.492 483.869L276.492 484.615C291.5 486.481 322.88 481.602 342.775 474.309C353.624 470.332 372.992 461.096 372.992 459.899C372.992 459.217 370.629 456.428 367.742 453.702L362.492 448.745L343.492 444.099C321.826 438.801 308.295 436.736 288.841 435.76C275.243 435.077 275.228 435.079 273.662 437.473ZM509.492 444.898C502.342 446.144 490.968 447.721 484.217 448.403C477.465 449.084 471.741 449.966 471.496 450.362C470.961 451.228 486.573 471.948 494.795 481.283L498.682 485.696L503.346 481.397C511.481 473.898 521.24 458.421 525.568 446.152C527.181 441.581 528.113 441.654 509.492 444.898ZM442.992 453.07C428.134 454.687 394.846 461.181 393.254 462.774C392.14 463.888 416.919 490.942 432.23 505.329L439.967 512.6L444.73 511.913C455.237 510.399 478.605 500.826 486.762 494.695L490.032 492.237L483.99 485.553C480.667 481.877 473.623 472.907 468.337 465.619L458.727 452.369L452.609 452.529C449.245 452.617 444.917 452.86 442.992 453.07ZM367.492 475.962C348.825 485.203 330.903 490.707 307.492 494.388C303.092 495.08 299.135 495.963 298.7 496.35C297.702 497.236 326.011 506.465 339.992 509.811C345.767 511.194 355.442 513.047 361.492 513.931C374.946 515.895 419.813 517.128 422.53 515.608C424.17 514.69 423.038 513.189 412.434 502.217C405.866 495.42 396.267 485.249 391.104 479.614C385.94 473.979 381.44 469.404 381.104 469.448C380.767 469.491 374.642 472.422 367.492 475.962ZM274.992 498.298C274.992 498.808 275.576 499.821 276.29 500.548C277.003 501.274 279.554 504.485 281.958 507.683C287.842 515.51 297.694 523.499 307.992 528.796C323.725 536.887 337.067 539.569 370.992 541.459C399.079 543.024 447.992 541.741 447.992 539.44C447.992 539.083 445.073 535.592 441.505 531.683L435.019 524.576L430.755 525.642C428.319 526.251 415.353 526.733 400.492 526.766C378.254 526.816 372.321 526.493 359.492 524.539C330.344 520.099 310.428 514.087 288.164 503.007C276.581 497.243 274.992 496.674 274.992 498.298ZM493.492 503.57C487.516 508.147 468.694 516.893 458.592 519.787C453.697 521.189 449.549 522.478 449.376 522.652C449.203 522.825 452.125 526.271 455.87 530.309C462.509 537.467 462.771 537.633 466.383 536.955C476.293 535.096 494.247 527.63 504.992 520.899C510.968 517.156 516.992 512.393 516.992 511.411C516.992 510.392 500.216 500.347 498.666 500.437C498.02 500.475 495.692 501.885 493.492 503.57ZM521.499 523.361C508.864 532.827 493.211 540.683 479.215 544.582C474.701 545.84 471.004 547.098 471 547.378C470.992 547.861 477.808 556.345 496.29 578.86C512.898 599.091 527.916 616.078 536.194 623.997C545.221 632.632 557.31 641.369 560.231 641.369C564.562 641.369 560.792 630.152 547.443 603.322C529.779 567.819 526.253 555.944 530.631 546.716C532.677 542.405 538.109 539.536 554.816 533.939C561.594 531.668 567.128 529.4 567.114 528.898C567.1 528.396 562.229 526.758 556.29 525.259C550.351 523.76 542.288 521.371 538.371 519.951C534.454 518.531 530.854 517.37 530.371 517.371C529.888 517.372 525.895 520.067 521.499 523.361Z" fill="#009689"/>
<path fill-rule="evenodd" clip-rule="evenodd" d="M130.71 685.557V742.357H121.01V683.757C121.002 682.751 121.117 681.747 121.354 680.768C121.713 679.256 122.475 677.87 123.56 676.757C125.053 675.231 127.061 674.316 129.193 674.193C129.498 674.169 129.804 674.157 130.11 674.157C131.405 674.14 132.693 674.351 133.915 674.78C136.031 675.554 137.696 677.046 138.91 679.257L167.11 731.957C167.159 732.119 167.217 732.277 167.285 732.431C167.432 732.763 167.603 732.994 167.797 733.126C167.918 733.211 168.062 733.257 168.21 733.257C168.529 733.257 168.695 733.014 168.709 732.528C168.71 732.505 168.71 732.481 168.71 732.457V675.357H178.41V734.057C178.41 736.991 177.543 739.307 175.81 741.007C174.989 741.832 174.011 742.482 172.934 742.92C171.856 743.358 170.702 743.575 169.539 743.557C169.529 743.557 169.52 743.557 169.51 743.557C168.268 743.572 167.03 743.392 165.844 743.023C163.567 742.287 161.818 740.786 160.597 738.521C160.568 738.467 160.539 738.412 160.51 738.357L132.41 685.557C132.28 685.037 132.107 684.685 131.892 684.503C131.787 684.41 131.651 684.358 131.51 684.357C131.068 684.357 130.809 684.633 130.734 685.183C130.717 685.307 130.709 685.432 130.71 685.557ZM551.01 734.657L541.41 693.357H550.71L559.71 732.757C559.977 733.957 560.577 734.557 561.51 734.557C561.753 734.563 561.993 734.505 562.207 734.388C562.42 734.271 562.599 734.1 562.725 733.892C562.836 733.724 562.932 733.525 563.012 733.293C563.049 733.183 563.082 733.071 563.11 732.957L571.11 701.057C571.426 699.712 571.911 698.413 572.553 697.189C574.364 693.835 577.25 692.157 581.21 692.157C582.733 692.127 584.244 692.436 585.633 693.06C588.322 694.322 590.17 696.908 591.175 700.817C591.187 700.864 591.198 700.911 591.21 700.957L599.11 732.957C599.182 733.194 599.279 733.422 599.4 733.638C599.75 734.251 600.253 734.557 600.91 734.557C601.563 734.557 602.06 734.158 602.402 733.36C602.485 733.164 602.554 732.963 602.61 732.757L611.31 693.357H620.51L611.21 734.657C610.978 735.712 610.633 736.738 610.181 737.718C609.53 739.106 608.677 740.258 607.624 741.176C607.553 741.238 607.482 741.298 607.41 741.357C605.543 742.891 603.343 743.657 600.81 743.657C599.289 743.688 597.781 743.376 596.398 742.744C593.691 741.452 591.862 738.79 590.91 734.757L582.91 702.357C582.838 702.121 582.742 701.892 582.621 701.676C582.271 701.064 581.767 700.757 581.11 700.757C580.294 700.757 579.774 701.231 579.549 702.177C579.534 702.237 579.521 702.297 579.51 702.357L571.41 734.757C571.116 736.071 570.662 737.343 570.059 738.546C568.386 741.789 565.724 743.489 562.074 743.645C561.886 743.653 561.698 743.657 561.51 743.657C558.977 743.657 556.76 742.891 554.86 741.357C553.643 740.36 552.671 739.096 552.021 737.662C551.577 736.7 551.238 735.692 551.01 734.657ZM639.01 718.657V742.357H629.11V717.657C629.086 714.779 629.455 711.911 630.208 709.133C631.199 705.51 633.013 702.164 635.51 699.357C638.672 695.82 642.943 693.463 647.621 692.672C649.53 692.32 651.468 692.147 653.41 692.157C655.998 692.134 658.577 692.444 661.086 693.078C665.113 694.082 668.755 696.248 671.56 699.307C674.995 703.08 677.174 707.826 677.797 712.89C678.009 714.437 678.114 715.996 678.11 717.557V742.357H668.21V718.757C668.225 716.825 667.992 714.898 667.516 713.025C666.914 710.668 665.822 708.464 664.31 706.557C663.224 705.179 661.865 704.041 660.317 703.214C658.769 702.387 657.067 701.89 655.318 701.754C654.684 701.689 654.047 701.656 653.41 701.657C651.87 701.641 650.336 701.855 648.858 702.29C646.421 703.023 644.284 704.519 642.76 706.557C640.942 708.961 639.756 711.782 639.311 714.763C639.106 716.051 639.006 717.353 639.01 718.657ZM289.81 716.957V693.357H299.71V718.157C299.735 721.065 299.352 723.961 298.571 726.762C297.567 730.318 295.768 733.599 293.31 736.357C289.969 740.107 285.397 742.536 280.42 743.206C278.861 743.445 277.287 743.563 275.71 743.557C268.31 743.557 262.493 741.141 258.26 736.307C254.927 732.475 252.821 727.732 252.214 722.69C252.008 721.155 251.906 719.607 251.91 718.057V693.357H261.81V717.057C261.796 719.01 262.034 720.957 262.519 722.848C263.099 725.094 264.115 727.204 265.51 729.057C266.514 730.435 267.804 731.579 269.292 732.411C270.78 733.244 272.43 733.745 274.129 733.88C274.654 733.932 275.182 733.958 275.71 733.957C277.315 733.976 278.911 733.723 280.432 733.209C282.68 732.418 284.64 730.972 286.06 729.057C287.879 726.654 289.065 723.832 289.51 720.851C289.714 719.563 289.815 718.261 289.81 716.957ZM240.51 716.357V720.357H201.31C201.538 722.342 202.108 724.272 202.994 726.063C203.888 727.83 205.116 729.407 206.61 730.707C209.326 733.09 212.775 734.471 216.385 734.621C216.793 734.645 217.201 734.657 217.61 734.657C219.536 734.679 221.455 734.416 223.304 733.876C225.154 733.321 226.871 732.395 228.351 731.153C229.83 729.912 231.041 728.382 231.91 726.657L239.51 730.557C238.323 732.942 236.747 735.113 234.847 736.981C233.585 738.206 232.179 739.272 230.66 740.157C227.645 741.899 224.291 742.971 220.825 743.299C219.79 743.406 218.75 743.458 217.71 743.457C210.243 743.457 204.043 741.024 199.11 736.157C194.655 731.784 192.032 725.879 191.775 719.641C191.731 718.947 191.71 718.252 191.71 717.557C191.674 714.164 192.266 710.794 193.457 707.616C194.646 704.544 196.431 701.737 198.71 699.357C200.882 697.032 203.508 695.176 206.425 693.905C209.343 692.635 212.49 691.975 215.672 691.968C215.951 691.961 216.231 691.957 216.51 691.957C219.165 691.932 221.809 692.289 224.362 693.017C228.034 694.08 231.35 696.115 233.96 698.907C237.781 702.962 240.063 708.226 240.408 713.787C240.477 714.642 240.511 715.5 240.51 716.357ZM435.11 742.357H412.41V675.357H435.61C439.457 675.326 443.293 675.777 447.028 676.698C452.47 678.029 457.486 680.715 461.61 684.507C467.366 689.803 470.857 697.116 471.356 704.922C471.46 706.131 471.511 707.344 471.51 708.557C471.547 712.31 471.02 716.046 469.946 719.642C468.353 724.862 465.347 729.54 461.26 733.157C455.969 737.87 449.389 740.892 442.367 741.835C439.964 742.19 437.539 742.364 435.11 742.357ZM532.81 717.757V742.357H523.41V733.757C521.543 736.824 519.027 739.224 515.86 740.957C513.081 742.463 510.003 743.334 506.847 743.506C506.302 743.541 505.756 743.558 505.21 743.557C501.702 743.601 498.227 742.879 495.028 741.44C492.245 740.142 489.743 738.313 487.66 736.057C483.006 731.149 480.473 724.604 480.611 717.841C480.611 717.813 480.61 717.785 480.61 717.757C480.557 714.444 481.174 711.154 482.423 708.084C483.672 705.014 485.527 702.228 487.878 699.892C487.955 699.813 488.032 699.735 488.11 699.657C490.492 697.244 493.336 695.335 496.472 694.047C499.609 692.759 502.973 692.117 506.364 692.159C506.479 692.158 506.595 692.157 506.71 692.157C510.091 692.121 513.449 692.705 516.619 693.881C519.876 695.132 522.836 697.048 525.31 699.507C527.696 701.803 529.59 704.559 530.879 707.608C532.167 710.658 532.823 713.938 532.806 717.248C532.809 717.418 532.81 717.588 532.81 717.757ZM390.81 736.007C385.81 741.041 379.643 743.557 372.31 743.557C368.519 743.603 364.763 742.833 361.296 741.299C358.469 740.007 355.899 738.214 353.71 736.007C351.299 733.689 349.382 730.907 348.076 727.827C346.77 724.748 346.102 721.436 346.112 718.091C346.111 717.98 346.11 717.869 346.11 717.757C346.061 714.443 346.685 711.152 347.946 708.086C349.207 705.021 351.079 702.243 353.446 699.922C353.533 699.833 353.621 699.745 353.71 699.657C358.777 694.657 364.977 692.157 372.31 692.157C379.643 692.157 385.81 694.657 390.81 699.657C393.191 701.962 395.082 704.724 396.371 707.777C397.659 710.831 398.318 714.112 398.309 717.426C398.31 717.537 398.31 717.647 398.31 717.757C398.366 721.093 397.752 724.407 396.504 727.501C395.255 730.595 393.398 733.407 391.043 735.77C390.966 735.85 390.888 735.929 390.81 736.007ZM435.61 684.757H422.61V733.057H435.11C438.126 733.084 441.129 732.671 444.025 731.829C447.604 730.771 450.898 728.917 453.66 726.407C457.713 722.747 460.256 717.708 460.793 712.273C460.94 711.04 461.012 709.799 461.01 708.557C461.038 705.788 460.623 703.033 459.779 700.395C458.639 696.937 456.637 693.826 453.96 691.357C450.45 688.098 446.047 685.961 441.314 685.223C439.429 684.906 437.521 684.75 435.61 684.757ZM323.41 713.557V742.357H313.51V713.157C313.492 710.91 313.756 708.67 314.296 706.488C315.056 703.399 316.553 700.541 318.66 698.157C321.157 695.361 324.518 693.481 328.207 692.816C329.822 692.502 331.464 692.348 333.11 692.357C334.516 692.351 335.919 692.466 337.305 692.702C338.935 692.988 340.427 693.452 341.78 694.094C341.823 694.115 341.867 694.136 341.91 694.157V703.957C339.51 702.557 336.877 701.857 334.01 701.857C332.866 701.847 331.726 701.996 330.624 702.3C328.941 702.768 327.427 703.707 326.26 705.007C325.091 706.319 324.268 707.902 323.863 709.611C323.561 710.807 323.41 712.123 323.41 713.557ZM360.76 729.357C363.927 732.557 367.777 734.157 372.31 734.157C376.843 734.157 380.66 732.557 383.76 729.357C386.86 726.157 388.41 722.324 388.41 717.857C388.41 713.324 386.86 709.457 383.76 706.257C382.342 704.753 380.634 703.553 378.738 702.728C376.843 701.904 374.8 701.473 372.733 701.462C372.592 701.459 372.451 701.457 372.31 701.457C370.003 701.43 367.716 701.891 365.6 702.812C363.766 703.639 362.106 704.808 360.71 706.257C359.189 707.772 357.989 709.577 357.182 711.565C356.374 713.554 355.976 715.684 356.01 717.83C356.01 717.839 356.01 717.848 356.01 717.857C355.98 719.978 356.379 722.083 357.183 724.047C357.986 726.01 359.178 727.791 360.686 729.282C360.711 729.307 360.735 729.332 360.76 729.357ZM495.21 729.357C496.652 730.873 498.387 732.079 500.309 732.904C502.231 733.728 504.301 734.154 506.393 734.154C506.499 734.156 506.604 734.157 506.71 734.157C509.255 734.191 511.772 733.611 514.045 732.465C515.592 731.661 516.999 730.612 518.21 729.357C519.724 727.859 520.921 726.07 521.728 724.099C522.536 722.127 522.938 720.013 522.91 717.883C522.91 717.875 522.91 717.866 522.91 717.857C522.948 715.711 522.553 713.58 521.748 711.59C520.944 709.6 519.747 707.793 518.229 706.276C518.223 706.27 518.216 706.264 518.21 706.257C516.768 704.742 515.034 703.536 513.111 702.711C511.189 701.886 509.12 701.461 507.028 701.46C506.922 701.458 506.816 701.457 506.71 701.457C504.165 701.423 501.649 702.004 499.376 703.149C497.828 703.953 496.421 705.003 495.21 706.257C493.689 707.772 492.489 709.577 491.682 711.565C490.874 713.554 490.476 715.684 490.51 717.83C490.51 717.839 490.51 717.848 490.51 717.857C490.479 719.987 490.878 722.102 491.682 724.074C492.486 726.047 493.68 727.837 495.192 729.338C495.198 729.345 495.204 729.351 495.21 729.357ZM201.71 713.957H230.61C230.546 712.398 230.245 710.857 229.717 709.388C229.026 707.503 227.892 705.812 226.41 704.457C224.372 702.588 221.805 701.395 219.062 701.042C218.184 700.917 217.297 700.855 216.41 700.857C214.764 700.842 213.126 701.081 211.553 701.565C209.651 702.165 207.91 703.188 206.46 704.557C203.951 706.905 202.307 710.03 201.792 713.427C201.762 713.604 201.735 713.78 201.71 713.957Z" fill="#009689"/>
</svg>
